<svg xmlns="http://www.w3.org/2000/svg" width="36" height="36" viewBox="0 0 36 36" fill="none"><g fill="#F9F9F9" style="mix-blend-mode:overlay"><path d="M22.5 3.375a1.125 1.125 0 0 0 0 2.25H24A6.375 6.375 0 0 1 30.375 12v1.5a1.125 1.125 0 0 0 2.25 0V12A8.625 8.625 0 0 0 24 3.375h-1.5ZM12 3.375A8.625 8.625 0 0 0 3.375 12v1.5a1.125 1.125 0 0 0 2.25 0V12A6.375 6.375 0 0 1 12 5.625h1.5a1.125 1.125 0 0 0 0-2.25H12ZM5.625 22.5a1.125 1.125 0 0 0-2.25 0V24A8.625 8.625 0 0 0 12 32.625h1.5a1.125 1.125 0 0 0 0-2.25H12A6.375 6.375 0 0 1 5.625 24v-1.5ZM32.625 22.5a1.125 1.125 0 0 0-2.25 0V24A6.375 6.375 0 0 1 24 30.375h-1.5a1.125 1.125 0 0 0 0 2.25H24A8.625 8.625 0 0 0 32.625 24v-1.5Z"/></g></svg>
