<svg xmlns="http://www.w3.org/2000/svg" width="49" height="48" viewBox="0 0 49 48" fill="none"><circle cx="24.933" cy="24" r="24" fill="#65D072"/><path fill="#fff" d="m12.01 36.923 1.856-6.889a12.721 12.721 0 0 1-1.34-8.82 12.754 12.754 0 0 1 4.785-7.538 12.831 12.831 0 0 1 16.737 1.08 12.728 12.728 0 0 1 1.3 16.665 12.805 12.805 0 0 1-7.501 4.866c-3.007.67-6.155.236-8.867-1.22l-6.97 1.856Zm7.307-4.435.43.255a10.375 10.375 0 0 0 12.532-1.52 10.282 10.282 0 0 0 1.73-12.462 10.335 10.335 0 0 0-4.994-4.402 10.378 10.378 0 0 0-6.652-.451 10.348 10.348 0 0 0-5.547 3.686 10.289 10.289 0 0 0-2.14 6.294 10.17 10.17 0 0 0 1.513 5.345l.27.444-1.037 3.845 3.895-1.034Z"/><path fill="#fff" fill-rule="evenodd" d="M29.867 25.797a2.307 2.307 0 0 0-.902-.404 2.404 2.404 0 0 0-1.003.003c-.496.19-.816.908-1.136 1.267a.476.476 0 0 1-.279.17.507.507 0 0 1-.33-.043c-1.814-.656-3.335-1.86-4.315-3.415a.454.454 0 0 1 .069-.662 2.73 2.73 0 0 0 .762-1.177c.032-.49-.09-.98-.35-1.408a3.29 3.29 0 0 0-1.105-1.542 1.639 1.639 0 0 0-.857-.108c-.29.041-.562.16-.782.34a3.142 3.142 0 0 0-.886 1.11c-.202.427-.298.89-.28 1.355 0 .261.037.521.106.775.177.608.45 1.19.808 1.725.26.41.541.808.846 1.19a12.66 12.66 0 0 0 3.666 3.141c.718.416 1.485.754 2.287 1.007a5.434 5.434 0 0 0 2.66.388 3.34 3.34 0 0 0 1.427-.55c.42-.289.757-.668.981-1.105.132-.264.172-.56.114-.845-.137-.585-.983-.93-1.501-1.212Z" clip-rule="evenodd"/></svg>
