<svg xmlns="http://www.w3.org/2000/svg" width="49" height="48" viewBox="0 0 49 48" fill="none"><circle cx="24.02" cy="24" r="24" fill="#4D9FEB"/><path fill="#fff" d="M36.828 16.408c-.836.36-1.715.611-2.615.746.42-.072 1.04-.83 1.286-1.137.375-.463.66-.991.842-1.558 0-.042.042-.102 0-.133a.144.144 0 0 0-.138 0c-.978.53-2.018.934-3.096 1.204a.216.216 0 0 1-.217-.054 3.024 3.024 0 0 0-.27-.283 5.635 5.635 0 0 0-1.48-.957 5.195 5.195 0 0 0-2.302-.379 5.569 5.569 0 0 0-2.188.602 5.67 5.67 0 0 0-1.731 1.468 5.563 5.563 0 0 0-1.053 2.106 5.79 5.79 0 0 0-.054 2.226c0 .127 0 .145-.108.127-4.286-.632-7.803-2.154-10.677-5.422-.126-.144-.192-.144-.294 0-1.25 1.902-.644 4.91.92 6.396.21.199.426.392.655.572a5.364 5.364 0 0 1-2.056-.572c-.12-.078-.187-.036-.193.109-.017.2-.017.401 0 .601a5.466 5.466 0 0 0 3.367 4.357c.218.094.446.164.68.21a6.145 6.145 0 0 1-2.015.06c-.144-.03-.198.049-.144.187.884 2.407 2.802 3.141 4.208 3.55.193.03.385.03.601.078l-.036.037c-.415.758-2.092 1.27-2.861 1.534a10.276 10.276 0 0 1-4.389.566c-.234-.037-.288-.03-.349 0-.06.03 0 .096.067.156.3.199.6.373.913.542.931.508 1.915.911 2.934 1.203 5.279 1.456 11.218.385 15.18-3.556 3.114-3.093 4.208-7.36 4.208-11.631 0-.163.199-.259.313-.343a10.328 10.328 0 0 0 2.062-2.154.632.632 0 0 0 .144-.434c0-.09 0-.072-.114-.024Z"/></svg>
