<svg xmlns="http://www.w3.org/2000/svg" width="92" height="16" viewBox="0 0 92 16" fill="none"><path fill="#141414" d="M7.54.703h7.5L22.157 15h-5.137l-1.357-2.383h-8.72L5.575 15H.44L7.54.703Zm4.1 3.193h-.703l-2.353 5.02h5.42l-2.363-5.02ZM24.55.703h7.901l3.76 8.037c.032.065.065.248.098.547.032.293.068.563.107.81.04.242.085.362.137.362.052 0 .094-.12.127-.361.039-.248.075-.518.107-.81.033-.3.065-.483.098-.548l3.76-8.037h7.5V15H43.75V5.02c0-.157.033-.362.098-.616.065-.26.097-.436.097-.527 0-.078-.039-.117-.117-.117-.02 0-.039.01-.059.03a.333.333 0 0 0-.068.067l-.058.098a.801.801 0 0 0-.069.117l-.049.117a1.774 1.774 0 0 1-.058.127l-.04.108L38.35 15h-3.604L29.268 4.385a1.02 1.02 0 0 0-.05-.108 7.072 7.072 0 0 0-.048-.127.963.963 0 0 0-.059-.117.888.888 0 0 0-.127-.215.213.213 0 0 0-.058-.068c-.02-.02-.04-.03-.059-.03-.078 0-.117.053-.117.157 0 .065.033.228.098.488.065.254.097.46.097.615V15h-4.394V.703Zm31.466 8.574v2.266h7.617c.39 0 .7-.094.928-.283.234-.189.351-.456.351-.801 0-.456-.107-.765-.322-.928-.215-.169-.534-.254-.957-.254h-7.617ZM51.61.703h12.783c.352 0 .655.01.909.03.26.012.553.052.879.117.332.058.612.143.84.254.227.104.459.257.693.458a2.3 2.3 0 0 1 .576.723c.15.28.27.628.361 1.045.091.41.137.879.137 1.406 0 .749-.137 1.374-.41 1.875-.273.502-.622.85-1.045 1.045 1.322.58 1.982 1.706 1.982 3.38 0 1.444-.341 2.467-1.025 3.066-.677.598-1.803.898-3.379.898h-13.3V.703Zm4.405 3.457v1.924h7.793c.735 0 1.103-.322 1.103-.967 0-.638-.368-.957-1.103-.957h-7.793Zm35.048 3.701a99.08 99.08 0 0 1-.02 2.285c-.006.521-.064 1.094-.175 1.72-.104.624-.221 1.067-.351 1.327-.13.26-.378.554-.743.88-.358.318-.729.523-1.113.614-.384.092-.95.193-1.7.303-.748.11-1.51.173-2.284.186a262.684 262.684 0 0 1-5.586.01 23.406 23.406 0 0 1-2.012-.108l-1.602-.156a3.916 3.916 0 0 1-1.181-.342 6.842 6.842 0 0 1-.889-.469c-.189-.13-.38-.368-.576-.713a3.918 3.918 0 0 1-.39-.918c-.06-.26-.118-.67-.176-1.23a17.312 17.312 0 0 1-.098-1.504V7.861c0-1.015.003-1.78.01-2.295a12.62 12.62 0 0 1 .175-1.718c.105-.638.219-1.084.342-1.338.13-.254.375-.544.733-.87.358-.331.729-.54 1.113-.624.384-.092.95-.192 1.7-.303a16.615 16.615 0 0 1 2.294-.195c.781-.013 1.807-.02 3.076-.02 1.27 0 2.292.007 3.067.02.775.013 1.536.074 2.285.185.749.11 1.315.215 1.7.313.383.09.754.3 1.112.625.365.319.612.612.743.879.13.26.247.703.351 1.328.11.625.17 1.198.176 1.718.013.521.02 1.286.02 2.295Zm-14.492 0c0 1.192.043 1.966.127 2.324.11.489.365.82.762.997.417.188 1.253.293 2.51.312l1.64.01c1.79 0 2.94-.04 3.448-.117.644-.104 1.074-.336 1.289-.694.195-.319.3-.924.312-1.816.007-.208.01-.547.01-1.016 0-1.198-.042-1.976-.127-2.334-.11-.494-.365-.83-.762-1.006-.416-.188-1.253-.292-2.51-.312l-1.64-.01c-1.79 0-2.94.043-3.447.127-.645.098-1.075.322-1.29.674-.195.319-.299.928-.312 1.826-.006.215-.01.56-.01 1.035Z"/></svg>
