<svg xmlns="http://www.w3.org/2000/svg" width="64" height="64" viewBox="0 0 64 64"><path fill="#141414" fill-rule="evenodd" d="M39.416 52.535c6.16-7.855 13.918-19.266 13.918-26.912 0-12.678-9.552-22.956-21.334-22.956S10.667 12.945 10.667 25.623c0 7.646 7.758 19.057 13.918 26.912 3.213 4.097 4.82 6.146 7.415 6.146 2.596 0 4.202-2.049 7.416-6.146Zm2.142-29.947a2 2 0 0 0-3.115-2.51l-5.39 6.69c-1.108 1.374-1.806 2.233-2.387 2.776-.273.255-.448.369-.548.419-.075.037-.101.037-.116.037h-.004c-.014 0-.04 0-.115-.037-.1-.05-.275-.164-.548-.419-.581-.543-1.28-1.402-2.387-2.776l-1.39-1.725a2 2 0 1 0-3.115 2.51l1.477 1.833c.994 1.233 1.87 2.32 2.685 3.082C27.479 33.284 28.566 34 30 34s2.522-.716 3.396-1.532c.814-.761 1.69-1.849 2.684-3.082l5.478-6.798Z" clip-rule="evenodd"/></svg>
