<svg xmlns="http://www.w3.org/2000/svg" width="12" height="12" viewBox="0 0 12 12"><path d="m10.39 6.937.406.292-.406-.292Zm0-1.874-.407.291.407-.291ZM10.83 6h-.5.5Zm-9.22.937.406-.291-.407.291Zm0-1.874-.407-.292.406.292ZM1.167 6h-.5.5Zm.036 1.229c.438.61 1.09 1.413 1.893 2.07C3.893 9.95 4.888 10.5 6 10.5v-1c-.782 0-1.557-.39-2.27-.975-.707-.58-1.302-1.306-1.713-1.88l-.813.584ZM6 10.5c1.112 0 2.107-.55 2.903-1.201.802-.657 1.455-1.46 1.893-2.07l-.813-.583c-.41.573-1.006 1.3-1.713 1.88-.713.583-1.488.974-2.27.974v1Zm4.796-5.729c-.438-.61-1.09-1.413-1.893-2.07C8.107 2.05 7.112 1.5 6 1.5v1c.782 0 1.557.39 2.27.975.707.58 1.302 1.306 1.713 1.88l.813-.584ZM6 1.5c-1.112 0-2.107.55-2.903 1.201-.802.657-1.455 1.46-1.893 2.07l.813.583c.41-.573 1.006-1.3 1.713-1.88C4.443 2.892 5.218 2.5 6 2.5v-1Zm4.796 5.729c.271-.378.536-.717.536-1.229h-1c0 .132-.03.203-.349.646l.813.583Zm-.813-1.875c.318.443.348.514.348.646h1c0-.512-.264-.85-.535-1.229l-.813.583ZM2.017 6.646c-.318-.443-.349-.514-.349-.646h-1c0 .512.265.85.536 1.229l.813-.583ZM1.204 4.77C.933 5.15.668 5.488.668 6h1c0-.132.03-.203.349-.646l-.813-.583ZM4 6a2 2 0 0 0 2 2V7a1 1 0 0 1-1-1H4Zm2 2a2 2 0 0 0 2-2H7a1 1 0 0 1-1 1v1Zm2-2a2 2 0 0 0-2-2v1a1 1 0 0 1 1 1h1ZM6 4a2 2 0 0 0-2 2h1a1 1 0 0 1 1-1V4Z"/></svg>
