<svg xmlns="http://www.w3.org/2000/svg" xml:space="preserve" viewBox="0 0 1000 1000"><path d="M881.1 132.5H118.9C59 132.5 10 181.5 10 241.4v517.3c0 59.9 49 108.9 108.9 108.9h762.2c59.9 0 108.9-49 108.9-108.9V241.4c0-59.9-49-108.9-108.9-108.9zm68.1 614.8c0 54.9-24.5 79.4-79.4 79.4H130.3c-54.9 0-79.4-24.5-79.4-79.4V252.7c0-54.9 24.5-79.4 79.4-79.4h739.5c54.9 0 79.4 24.5 79.4 79.4v494.6zm-632.9-329 102 81.7 265.4-224.6 204.2 183.8v306.3H112.1V581.7l204.2-163.4zM193.8 234.6c-45.1 0-81.7 36.6-81.7 81.7s36.6 81.7 81.7 81.7 81.7-36.6 81.7-81.7-36.6-81.7-81.7-81.7z"/></svg>
