<svg xmlns="http://www.w3.org/2000/svg" viewBox="0 0 386 210" width="386" height="210" fill="none"><g clip-path="url(#empty-list-id-a)"><rect width="386" height="100" fill="#fff" rx="4"/><path fill="#EBEBEB" d="M107 76h245v14H107zM107 61h39v11h-39zM10 10h70v80H10z"/><circle cx="123" cy="26" r="16" fill="#EBEBEB"/><path fill="#EBEBEB" d="M147 18h190v16H147z"/></g><rect width="385" height="99" x=".5" y=".5" stroke="#EBEBEB" rx="3.5"/><g clip-path="url(#empty-list-id-b)"><rect width="386" height="100" y="110" fill="#fff" rx="4"/><path fill="#EBEBEB" d="M107 186h245v14H107zM107 171h39v11h-39zM10 120h70v80H10z"/><circle cx="123" cy="136" r="16" fill="#EBEBEB"/><path fill="#EBEBEB" d="M147 128h190v16H147z"/></g><rect width="385" height="99" x=".5" y="110.5" stroke="#EBEBEB" rx="3.5"/><defs><clipPath id="empty-list-id-a"><rect width="386" height="100" fill="#fff" rx="4"/></clipPath><clipPath id="#empty-list-id-b"><rect width="386" height="100" y="110" fill="#fff" rx="4"/></clipPath></defs></svg>
