<svg xmlns="http://www.w3.org/2000/svg" width="18" height="18" viewBox="0 0 18 18" fill="none"><path fill="url(#checkbox-id-a)" d="M5.613 3.945a1.864 1.864 0 0 0-1.645 1.622 29.551 29.551 0 0 0 0 6.866c.1.849.786 1.527 1.645 1.622 2.232.25 4.542.25 6.774 0a1.864 1.864 0 0 0 1.645-1.622c.192-1.639.246-3.29.162-4.935a.15.15 0 0 1 .044-.115l.779-.779a.149.149 0 0 1 .254.094 30.673 30.673 0 0 1-.121 5.866 2.99 2.99 0 0 1-2.638 2.61c-2.315.258-4.709.258-7.024 0a2.99 2.99 0 0 1-2.638-2.61 30.677 30.677 0 0 1 0-7.128 2.99 2.99 0 0 1 2.638-2.61 31.877 31.877 0 0 1 7.024 0c.483.054.933.223 1.32.48.076.05.084.157.02.222l-.603.602a.159.159 0 0 1-.187.024 1.865 1.865 0 0 0-.675-.21 30.751 30.751 0 0 0-6.774 0Z"/><path fill="url(#checkbox-id-b)" d="M15.773 4.523a.563.563 0 0 0-.796-.796L8.625 10.08 6.773 8.227a.563.563 0 0 0-.796.796l2.25 2.25c.22.22.576.22.796 0l6.75-6.75Z"/><defs><linearGradient id="checkbox-id-a" x1="9.29" x2="9.29" y1="2.632" y2="15.367" gradientUnits="userSpaceOnUse"><stop stop-color="#219169"/><stop offset="1" stop-color="#157754"/></linearGradient><linearGradient id="checkbox-id-b" x1="9.29" x2="9.29" y1="2.632" y2="15.367" gradientUnits="userSpaceOnUse"><stop stop-color="#219169"/><stop offset="1" stop-color="#157754"/></linearGradient></defs></svg>
