<svg xmlns="http://www.w3.org/2000/svg" width="24" height="24" viewBox="0 0 24 24"><path fill="" d="M17.533 10.528a.75.75 0 1 0-1.066-1.056l-1.747 1.763c-.71.716-1.197 1.206-1.61 1.538-.402.323-.66.434-.891.463a1.727 1.727 0 0 1-.438 0c-.23-.03-.489-.14-.89-.463-.414-.332-.902-.822-1.611-1.538L7.533 9.472a.75.75 0 1 0-1.066 1.056l1.78 1.795c.669.676 1.217 1.228 1.704 1.62.508.407 1.023.702 1.64.781.272.035.546.035.817 0 .618-.079 1.133-.374 1.64-.781.488-.392 1.036-.944 1.706-1.62l1.779-1.795Z"/></svg>
