<svg xmlns="http://www.w3.org/2000/svg" width="406" height="254" viewBox="0 0 406 254" fill="none"><path fill="#EBEBEB" d="M0 4a4 4 0 0 1 4-4h190a4 4 0 0 1 4 4v186H0V4Z"/><path stroke="#EBEBEB" d="M.5 190.5h197V246a7.5 7.5 0 0 1-7.5 7.5H8A7.5 7.5 0 0 1 .5 246v-55.5Z" opacity="1"/><path fill="#EBEBEB" d="M10 200h46v21H10zM10 225h168v14H10z"/><path fill="#EBEBEB" d="M208 4a4 4 0 0 1 4-4h190a4 4 0 0 1 4 4v186H208V4Z"/><path stroke="#EBEBEB" d="M208.5 190.5h197V246a7.5 7.5 0 0 1-7.5 7.5H216a7.5 7.5 0 0 1-7.5-7.5v-55.5Z" opacity="1"/><path fill="#EBEBEB" d="M218 200h46v21h-46zM218 225h168v14H218z"/></svg>
