<svg xmlns="http://www.w3.org/2000/svg" width="32" height="32" viewBox="0 0 32 32"><path fill="#9FB4FF" d="M11.374 9.196a54.682 54.682 0 0 1 9.252 0l1.483.126a2.84 2.84 0 0 1 2.272 1.482.223.223 0 0 1-.09.295l-6.153 3.721a4.258 4.258 0 0 1-4.32.044l-6.195-3.576a.224.224 0 0 1-.101-.281 2.832 2.832 0 0 1 2.369-1.685l1.483-.126Z"/><path fill="#9FB4FF" d="M7.517 12.898c-.153-.088-.349.007-.367.18a28.45 28.45 0 0 0 .181 7.252c.195 1.266 1.253 2.237 2.56 2.348l1.483.126c3.078.261 6.174.261 9.252 0l1.483-.126c1.307-.11 2.365-1.082 2.56-2.348.38-2.472.433-4.98.158-7.463-.02-.174-.218-.267-.37-.175l-5.544 3.352a5.761 5.761 0 0 1-5.845.059l-5.551-3.205Z"/></svg>
