<svg xmlns="http://www.w3.org/2000/svg" width="30" height="30" viewBox="0 0 30 30" fill="none"><path fill="#E0E0E0" fill-rule="evenodd" d="M11.25 20h7.5a5.002 5.002 0 0 1 4.904 4.02A12.464 12.464 0 0 0 27.5 15c0-6.904-5.596-12.5-12.5-12.5S2.5 8.096 2.5 15c0 3.545 1.476 6.745 3.846 9.02A5.002 5.002 0 0 1 11.25 20ZM15 16.25a5 5 0 1 0 0-10 5 5 0 0 0 0 10Z" clip-rule="evenodd"/><path fill="#E0E0E0" d="m23.654 24.02.346.36-.346-.36Zm-17.308 0L6 24.38l.346-.36ZM19.5 11.25a4.5 4.5 0 0 1-4.5 4.5v1a5.5 5.5 0 0 0 5.5-5.5h-1Zm-4.5 4.5a4.5 4.5 0 0 1-4.5-4.5h-1a5.5 5.5 0 0 0 5.5 5.5v-1Zm-4.5-4.5a4.5 4.5 0 0 1 4.5-4.5v-1a5.5 5.5 0 0 0-5.5 5.5h1Zm4.5-4.5a4.5 4.5 0 0 1 4.5 4.5h1a5.5 5.5 0 0 0-5.5-5.5v1ZM11.25 20.5h7.5v-1h-7.5v1ZM3 15C3 8.373 8.373 3 15 3V2C7.82 2 2 7.82 2 15h1ZM15 3c6.627 0 12 5.373 12 12h1c0-7.18-5.82-13-13-13v1Zm12 12c0 3.403-1.416 6.475-3.692 8.66l.692.72c2.465-2.365 4-5.693 4-9.38h-1Zm-3.692 8.66A11.958 11.958 0 0 1 15 27v1c3.493 0 6.665-1.378 9-3.62l-.692-.72ZM18.75 20.5a4.502 4.502 0 0 1 4.414 3.617l.98-.195A5.502 5.502 0 0 0 18.75 19.5v1ZM15 27a11.958 11.958 0 0 1-8.308-3.34L6 24.38A12.958 12.958 0 0 0 15 28v-1Zm-8.308-3.34A11.964 11.964 0 0 1 3 15H2c0 3.687 1.535 7.015 4 9.38l.692-.72Zm4.558-4.16c-2.67 0-4.893 1.9-5.394 4.422l.98.195A4.502 4.502 0 0 1 11.25 20.5v-1Z"/></svg>
